<svg width="21" height="21" viewBox="0 0 21 21" fill="none" xmlns="http://www.w3.org/2000/svg">
<path d="M20.5613 0.438613C19.9765 -0.146204 19.0281 -0.146204 18.443 0.438613L10.5 8.38164L2.55693 0.438613C1.97211 -0.146204 1.02369 -0.146204 0.438613 0.438613C-0.146204 1.02369 -0.146204 1.97185 0.438613 2.55693L8.38164 10.5L0.438613 18.443C-0.146204 19.0278 -0.146204 19.9762 0.438613 20.5613C1.02343 21.1461 1.97185 21.1461 2.55693 20.5613L10.5 12.6183L18.443 20.5613C19.0278 21.1461 19.9762 21.1464 20.5613 20.5613C21.1461 19.9765 21.1461 19.0281 20.5613 18.443L12.6183 10.5L20.5613 2.55693C21.1461 1.97211 21.1461 1.02369 20.5613 0.438613Z" fill="#E2B937"/>
</svg>
