<svg width="18" height="13" viewBox="0 0 18 13" fill="none" xmlns="http://www.w3.org/2000/svg">
<path d="M6.35712 7.03859L-0.000163101 1.47161V12.487C-3.48192e-05 12.5235 0.00432606 12.5599 0.0130474 12.5954L6.35712 7.03859ZM0.468048 0H17.5318C17.7902 0.000128249 17.9995 0.209572 17.9998 0.467882V0.78224L10.797 7.09028C10.2926 7.51084 9.6566 7.74117 8.99992 7.74117C8.34324 7.74117 7.70722 7.51083 7.20279 7.09028L3.32928e-05 0.78224V0.467882C0.000289824 0.209572 0.209606 0.000131335 0.468048 0ZM18 1.47148V12.4869C17.9999 12.5233 17.9955 12.5598 17.9868 12.5953L11.643 7.03881L18 1.47148ZM6.86112 7.4804C7.46149 7.98072 8.21834 8.25482 8.99982 8.25482C9.78143 8.25482 10.5382 7.98073 11.1386 7.4804L11.2488 7.38357L17.6035 12.9489C17.5799 12.9527 17.5559 12.9547 17.5319 12.9548H0.468172C0.444188 12.9547 0.420205 12.9527 0.396604 12.9489L6.75126 7.3839L6.86112 7.4804Z" fill="white"/>
</svg>
