<svg width="35" height="25" viewBox="0 0 35 25" fill="none" xmlns="http://www.w3.org/2000/svg">
<path d="M32.5 4.5H2.5C1.78559 4.5 1.12524 4.11875 0.76783 3.49993C0.410767 2.88123 0.41077 2.11874 0.767845 1.50004C1.12518 0.881252 1.78551 0.5 2.5 0.5H32.5C33.2144 0.5 33.8747 0.8812 34.2321 1.49995L32.5 4.5ZM32.5 4.5C33.2145 4.5 33.8748 4.11878 34.2321 3.50005L32.5 4.5ZM34.2322 3.49996C34.5893 2.88126 34.5893 2.11877 34.2322 1.50007L34.2322 3.49996ZM2.5 10.5C1.9698 10.5 1.4611 10.7106 1.08579 11.0856C0.710709 11.4609 0.5 11.9697 0.5 12.5C0.5 13.0303 0.710705 13.5391 1.0858 13.9144C1.46107 14.2894 1.96978 14.5 2.5 14.5H32.5C33.2144 14.5 33.8747 14.1188 34.2321 13.5C34.5893 12.8813 34.5893 12.1188 34.2322 11.5C33.8749 10.8813 33.2145 10.5 32.5 10.5H2.5ZM2.5 20.5C1.9698 20.5 1.4611 20.7106 1.08579 21.0856C0.710709 21.4609 0.5 21.9697 0.5 22.5C0.5 23.0303 0.710705 23.5391 1.0858 23.9144C1.46107 24.2894 1.96978 24.5 2.5 24.5H32.5C33.2144 24.5 33.8748 24.1188 34.2322 23.4999C34.5893 22.8812 34.5893 22.1187 34.2321 21.5C33.8748 20.8812 33.2145 20.5 32.5 20.5H2.5Z" fill="#E2B937" stroke="white"/>
</svg>
