<svg width="68" height="68" viewBox="0 0 68 68" fill="none" xmlns="http://www.w3.org/2000/svg">
<path fill-rule="evenodd" clip-rule="evenodd" d="M0 33.6667C0 15.0722 15.0722 0 33.6667 0C52.2611 0 67.3333 15.0736 67.3333 33.6667C67.3333 52.2611 52.2611 67.3333 33.6667 67.3333C15.0722 67.3333 0 52.2611 0 33.6667ZM3.92975 33.6667C3.92975 50.0908 17.2435 63.4036 33.6667 63.4036C50.0902 63.4036 63.4036 50.0899 63.4036 33.6667C63.4036 17.2432 50.0902 3.92975 33.6667 3.92975C17.2432 3.92975 3.92975 17.2435 3.92975 33.6667Z" fill="white"/>
<path d="M27 47L49 33.5L27 20V47Z" fill="white"/>
</svg>
