<svg width="45" height="61" viewBox="0 0 45 61" fill="none" xmlns="http://www.w3.org/2000/svg">
<path d="M44.2384 46.0986C43.5819 45.378 42.4669 45.3249 41.7443 45.9807L41.0232 46.6367L37.5125 44.1996C36.2024 43.2894 35.2515 42.0578 34.835 40.7325C34.6247 40.0623 34.5178 39.3672 34.5178 38.6659V37.8964C34.5178 35.9443 34.173 33.9142 33.4959 31.8683C33.4869 31.8414 32.6153 29.1642 32.0836 27.8865L27.3795 16.5606C26.9134 15.3556 25.7322 14.5461 24.44 14.5461C23.6381 14.5461 22.9054 14.8474 22.3486 15.3426C21.7917 14.8474 21.059 14.5461 20.2571 14.5461C18.9656 14.5461 17.7844 15.3556 17.3286 16.5361L12.6128 27.8865C12.1701 28.9532 11.4881 30.996 11.2033 31.8635C10.5241 33.9163 10.1793 35.9463 10.1793 37.8964V38.6659C10.1793 39.3693 10.0731 40.0643 9.86214 40.7325C9.44634 42.0585 8.49545 43.2894 7.18461 44.1996L3.67462 46.6366L2.95352 45.9807C2.23156 45.3249 1.11517 45.378 0.459405 46.0986C-0.196359 46.8199 -0.143952 47.9363 0.577317 48.5927L12.7134 59.6331C13.052 59.9407 13.4775 60.0924 13.9008 60.0924C14.3808 60.0924 14.8593 59.8979 15.2075 59.5152C15.8633 58.794 15.8109 57.6776 15.0896 57.0211L14.2134 56.224L19.9186 50.5193C20.9472 49.4907 21.7644 48.3071 22.3487 47.0212C22.9329 48.3069 23.7501 49.4905 24.7785 50.5193L30.4841 56.2243L29.6081 57.0211C28.8869 57.6776 28.8345 58.794 29.4902 59.5152C29.8392 59.8979 30.317 60.0924 30.7969 60.0924C31.2203 60.0924 31.6458 59.9407 31.9844 59.6331L44.1205 48.5927C44.8417 47.9363 44.8942 46.8199 44.2384 46.0986ZM18.4209 49.0216L12.6448 54.7971L5.28247 48.0994L8.3927 45.94C10.0876 44.763 11.3274 43.1391 11.8832 41.3676C12.1583 40.4939 12.2976 39.5851 12.2976 38.6659V37.8964C12.2976 36.1732 12.6059 34.3673 13.2278 32.4869C13.4347 31.858 14.1422 29.7266 14.569 28.6991L19.2945 17.3246C19.4469 16.9299 19.8337 16.6644 20.2571 16.6644C20.826 16.6644 21.2894 17.1274 21.2894 17.6966V29.5762C20.9535 29.4558 20.5919 29.3901 20.2151 29.3901H19.3717C17.6113 29.3901 16.1791 30.8223 16.1791 32.5827V39.4727C16.1791 40.0574 16.6535 40.5319 17.2383 40.5319C17.823 40.5319 18.2974 40.0574 18.2974 39.4727V32.5827C18.2974 31.9904 18.7794 31.5084 19.3717 31.5084H20.2151C20.8074 31.5084 21.2894 31.9904 21.2894 32.5827V42.0958C21.2894 44.7119 20.2709 47.1716 18.4209 49.0216ZM26.2762 49.0216C24.4262 47.1709 23.4077 44.7112 23.4077 42.0958V32.5827C23.4077 31.9904 23.8897 31.5084 24.4827 31.5084H25.3253C25.9184 31.5084 26.4004 31.9904 26.4004 32.5827V39.4727C26.4004 40.0574 26.8748 40.5319 27.4595 40.5319C28.0442 40.5319 28.5187 40.0574 28.5187 39.4727V32.5827C28.5187 30.8223 27.0865 29.3901 25.3253 29.3901H24.4827C24.1057 29.3901 23.7438 29.4559 23.4077 29.5764V17.6967C23.4077 17.1274 23.8711 16.6644 24.44 16.6644C24.8702 16.6644 25.2481 16.9237 25.4129 17.3488L30.1281 28.6995C30.6197 29.8814 31.4727 32.4972 31.483 32.5289C32.0912 34.3652 32.3995 36.1711 32.3995 37.8964V38.6659C32.3995 39.5823 32.5388 40.4912 32.8139 41.3669C33.3704 43.1391 34.6102 44.763 36.3044 45.94L39.4151 48.0996L32.0526 54.7974L26.2762 49.0216Z" fill="#E2B937"/>
<path d="M22.3482 11.3738C22.933 11.3738 23.4074 10.8998 23.4074 10.3147V1.05915C23.4074 0.47407 22.933 0 22.3482 0C21.7635 0 21.2891 0.47407 21.2891 1.05915V10.3147C21.2891 10.8998 21.7635 11.3738 22.3482 11.3738Z" fill="#E2B937"/>
<path d="M29.8675 14.1423C30.0344 14.2389 30.2165 14.2847 30.3964 14.2847C30.7619 14.2847 31.1184 14.0944 31.3142 13.7548L35.9418 5.73912C36.2342 5.23264 36.0611 4.5848 35.5543 4.29243C35.0488 4.00006 34.4 4.17348 34.1076 4.67996L29.48 12.6957C29.1876 13.2021 29.3607 13.85 29.8675 14.1423Z" fill="#E2B937"/>
<path d="M13.3495 13.7548C13.5453 14.0947 13.9018 14.2847 14.2673 14.2847C14.4473 14.2847 14.6293 14.2389 14.7962 14.1423C15.303 13.85 15.4761 13.2021 15.1837 12.6956L10.5554 4.67994C10.2631 4.17243 9.61419 4.00005 9.10875 4.29241C8.60193 4.58478 8.42885 5.23262 8.72122 5.7391L13.3495 13.7548Z" fill="#E2B937"/>
<path d="M1.91833 16.3544L9.93437 20.9823C10.1012 21.0789 10.2833 21.1247 10.4633 21.1247C10.8287 21.1247 11.1852 20.9344 11.381 20.5948C11.6734 20.0883 11.5003 19.4405 10.9935 19.1481L2.97747 14.5202C2.47203 14.2275 1.82316 14.4009 1.53079 14.9077C1.23842 15.4142 1.4115 16.062 1.91833 16.3544Z" fill="#E2B937"/>
<path d="M33.022 20.5949C33.2178 20.9349 33.5743 21.1248 33.9398 21.1248C34.1198 21.1248 34.3018 21.079 34.4687 20.9824L42.4847 16.3545C42.9915 16.0621 43.1646 15.4143 42.8723 14.9078C42.5799 14.4003 41.931 14.2276 41.4256 14.5203L33.4095 19.1482C32.9027 19.4406 32.7296 20.0884 33.022 20.5949Z" fill="#E2B937"/>
</svg>
