<svg width="59" height="59" viewBox="0 0 59 59" fill="none" xmlns="http://www.w3.org/2000/svg">
<path d="M29.4 0C13.1688 0 0 13.1688 0 29.4C0 45.6313 13.1688 58.8 29.4 58.8C45.6313 58.8 58.8 45.6313 58.8 29.4C58.8 13.1688 45.6313 0 29.4 0ZM44.5288 22.295L27.2563 39.6288C26.7051 40.1799 25.9088 40.5474 25.1123 40.5474C24.3158 40.5474 23.5199 40.241 22.9683 39.6288L14.2713 30.9313C13.0464 29.7064 13.0464 27.8076 14.2713 26.5823C15.4962 25.3574 17.3949 25.3574 18.6202 26.5823L25.1126 33.0747L40.2414 17.9459C41.4663 16.721 43.365 16.721 44.5904 17.9459C45.7538 19.1713 45.7538 21.0699 44.5288 22.2949L44.5288 22.295Z" fill="#E2B937"/>
</svg>